<?xml version="1.0" encoding="UTF-8"?>
<!DOCTYPE svg PUBLIC "-//W3C//DTD SVG 1.1//EN" "http://www.w3.org/Graphics/SVG/1.1/DTD/svg11.dtd">
<svg xmlns="http://www.w3.org/2000/svg" version="1.1" width="399px" height="356px" style="shape-rendering:geometricPrecision; text-rendering:geometricPrecision; image-rendering:optimizeQuality; fill-rule:evenodd; clip-rule:evenodd" xmlns:xlink="http://www.w3.org/1999/xlink">
<g><path style="opacity:0.212" fill="#1a1e45" d="M 166.5,66.5 C 165.688,67.9931 164.355,68.6598 162.5,68.5C 156.126,67.2941 152.793,63.4607 152.5,57C 153.717,45.3744 153.717,34.041 152.5,23C 152.908,16.0916 156.574,12.2582 163.5,11.5C 166.655,12.1503 169.155,13.817 171,16.5C 171.184,30.5449 171.684,44.5449 172.5,58.5C 172.343,62.6452 170.343,65.3119 166.5,66.5 Z"/></g>
<g><path style="opacity:1" fill="#ebd43c" d="M 166.5,66.5 C 160.808,67.7399 156.974,65.7399 155,60.5C 154.333,46.5 154.333,32.5 155,18.5C 158.013,13.4648 162.18,12.2981 167.5,15C 168.701,15.9025 169.535,17.0692 170,18.5C 170.667,32.8333 170.667,47.1667 170,61.5C 169.003,63.3231 167.836,64.9897 166.5,66.5 Z"/></g>
<g><path style="opacity:0.997" fill="#f5c13c" d="M 159.5,15.5 C 163.013,14.8757 165.847,15.8757 168,18.5C 168.667,33.1667 168.667,47.8333 168,62.5C 165.503,64.4782 162.669,64.9782 159.5,64C 158.333,63.5 157.5,62.6667 157,61.5C 156.333,47.1667 156.333,32.8333 157,18.5C 158.045,17.6266 158.878,16.6266 159.5,15.5 Z"/></g>
<g><path style="opacity:1" fill="#e6d83d" d="M 251.5,69.5 C 255.066,64.4266 259.232,59.7599 264,55.5C 265.655,47.4925 262.488,44.6591 254.5,47C 245.697,56.8037 236.53,66.3037 227,75.5C 225.996,78.9926 226.496,82.1592 228.5,85C 231.399,85.1856 234.066,85.3522 236.5,85.5C 233.609,86.4025 230.609,86.7359 227.5,86.5C 224.78,83.3221 223.946,79.6555 225,75.5C 229.436,71.5724 233.269,67.2391 236.5,62.5C 242.557,56.9457 248.557,51.1124 254.5,45C 262.669,43.1802 266.502,46.3469 266,54.5C 261.663,60.0031 256.83,65.0031 251.5,69.5 Z"/></g>
<g><path style="opacity:0.997" fill="#f3c13c" d="M 251.5,69.5 C 250.075,70.922 249.075,72.5887 248.5,74.5C 248.5,75.1667 248.167,75.5 247.5,75.5C 246.5,75.8333 245.833,76.5 245.5,77.5C 245.5,78.1667 245.167,78.5 244.5,78.5C 241.833,80.8333 239.167,83.1667 236.5,85.5C 234.066,85.3522 231.399,85.1856 228.5,85C 226.496,82.1592 225.996,78.9926 227,75.5C 236.53,66.3037 245.697,56.8037 254.5,47C 262.488,44.6591 265.655,47.4925 264,55.5C 259.232,59.7599 255.066,64.4266 251.5,69.5 Z"/></g>
<g><path style="opacity:0.431" fill="#27293f" d="M 79.5,78.5 C 73.9634,71.7965 67.6301,65.9632 60.5,61C 60.8333,60.6667 61.1667,60.3333 61.5,60C 55.6903,54.6871 56.0237,49.3538 62.5,44C 66.4649,42.0379 70.1316,42.5379 73.5,45.5C 83.1826,55.3487 92.6826,65.3487 102,75.5C 103.81,82.8586 100.976,87.1919 93.5,88.5C 89.5188,87.3659 85.8521,85.5325 82.5,83C 82.8333,82.6667 83.1667,82.3333 83.5,82C 82.051,80.8978 80.7177,79.7311 79.5,78.5 Z"/></g>
<g><path style="opacity:0.992" fill="#e7db3c" d="M 63.5,44.5 C 65.8568,44.3367 68.1902,44.5034 70.5,45C 80.3333,54.8333 90.1667,64.6667 100,74.5C 102.509,83.6615 99.0089,87.4948 89.5,86C 80,76.5 70.5,67 61,57.5C 58.4582,52.4379 59.2915,48.1046 63.5,44.5 Z"/></g>
<g><path style="opacity:0.997" fill="#f5c13c" d="M 63.5,46.5 C 65.8568,46.3367 68.1902,46.5034 70.5,47C 80,56.5 89.5,66 99,75.5C 100.482,83.6888 97.3149,86.5222 89.5,84C 80.3333,74.8333 71.1667,65.6667 62,56.5C 59.9254,52.7942 60.4254,49.4609 63.5,46.5 Z"/></g>
<g><path style="opacity:0.059" fill="#232539" d="M 248.5,74.5 C 249.075,72.5887 250.075,70.922 251.5,69.5C 256.83,65.0031 261.663,60.0031 266,54.5C 266.502,46.3469 262.669,43.1802 254.5,45C 248.557,51.1124 242.557,56.9457 236.5,62.5C 241.417,56.2423 246.751,50.2423 252.5,44.5C 260.38,41.1315 265.714,43.4648 268.5,51.5C 268.101,53.1966 267.601,54.8632 267,56.5C 260.965,62.7028 254.798,68.7028 248.5,74.5 Z"/></g>
<g><path style="opacity:0.039" fill="#2d2f3e" d="M 236.5,62.5 C 233.269,67.2391 229.436,71.5724 225,75.5C 223.946,79.6555 224.78,83.3221 227.5,86.5C 225.983,86.4894 224.816,85.8228 224,84.5C 223.837,82.324 223.004,80.4907 221.5,79C 225.311,72.3583 230.311,66.8583 236.5,62.5 Z"/></g>
<g><path style="opacity:0.004" fill="#132556" d="M 247.5,75.5 C 247.5,76.8333 246.833,77.5 245.5,77.5C 245.833,76.5 246.5,75.8333 247.5,75.5 Z"/></g>
<g><path style="opacity:0.004" fill="#153c66" d="M 79.5,78.5 C 78.8333,79.1667 78.8333,79.1667 79.5,78.5 Z"/></g>
<g><path style="opacity:0.996" fill="#f6c23b" d="M 200.5,143.5 C 200.167,143.5 199.833,143.5 199.5,143.5C 187.439,152.229 178.772,163.563 173.5,177.5C 151.341,171.855 130.675,175.355 111.5,188C 110.177,188.816 109.511,189.983 109.5,191.5C 109.5,192.167 109.167,192.5 108.5,192.5C 108.103,191.475 107.437,191.308 106.5,192C 97.9979,199.53 91.3313,208.363 86.5,218.5C 85.8165,218.137 85.1499,217.804 84.5,217.5C 79.616,206.677 76.4493,195.343 75,183.5C 74.5065,185.134 74.3398,186.801 74.5,188.5C 73.5386,186.735 73.2053,184.735 73.5,182.5C 73.0722,136.661 94.0722,105.328 136.5,88.5C 173.287,79.5871 204.453,88.9204 230,116.5C 231.303,118.968 232.803,121.301 234.5,123.5C 223.143,127.678 212.477,133.178 202.5,140C 201.177,140.816 200.511,141.983 200.5,143.5 Z"/></g>
<g><path style="opacity:0.212" fill="#2f2f39" d="M 244.5,78.5 C 241.676,85.1656 236.676,88.3323 229.5,88C 228.584,87.7216 227.918,87.2216 227.5,86.5C 230.609,86.7359 233.609,86.4025 236.5,85.5C 239.167,83.1667 241.833,80.8333 244.5,78.5 Z"/></g>
<g><path style="opacity:1" fill="#e5d83d" d="M 208.5,138.5 C 206.147,139.34 204.147,140.674 202.5,142.5C 202.5,143.167 202.167,143.5 201.5,143.5C 201.167,143.5 200.833,143.5 200.5,143.5C 200.511,141.983 201.177,140.816 202.5,140C 212.477,133.178 223.143,127.678 234.5,123.5C 232.803,121.301 231.303,118.968 230,116.5C 204.453,88.9204 173.287,79.5871 136.5,88.5C 173.917,78.1521 205.75,87.4854 232,116.5C 234.029,119.029 235.862,121.696 237.5,124.5C 231.882,126.762 226.215,128.929 220.5,131C 215.93,132.774 211.93,135.274 208.5,138.5 Z"/></g>
<g><path style="opacity:1" fill="#e1d13e" d="M 136.5,88.5 C 94.0722,105.328 73.0722,136.661 73.5,182.5C 71.4052,146.022 85.4052,117.356 115.5,96.5C 122.195,92.9839 129.195,90.3172 136.5,88.5 Z"/></g>
<g><path style="opacity:0.016" fill="#24263e" d="M 208.5,138.5 C 211.93,135.274 215.93,132.774 220.5,131C 226.215,128.929 231.882,126.762 237.5,124.5C 235.862,121.696 234.029,119.029 232,116.5C 205.75,87.4854 173.917,78.1521 136.5,88.5C 129.195,90.3172 122.195,92.9839 115.5,96.5C 127.803,88.1725 141.47,83.1725 156.5,81.5C 190.587,81.1269 217.753,94.7936 238,122.5C 238.743,124.441 238.576,126.274 237.5,128C 234.304,128.145 230.971,128.812 227.5,130C 221.461,132.67 215.128,135.503 208.5,138.5 Z"/></g>
<g><path style="opacity:0.431" fill="#24263e" d="M 57.5,144.5 C 55.5717,146.113 53.2383,147.113 50.5,147.5C 47.3224,145.908 44.1557,144.241 41,142.5C 40.586,142.957 40.086,143.291 39.5,143.5C 30.0848,140.26 20.7515,136.76 11.5,133C 7.96166,128.785 7.62833,124.285 10.5,119.5C 12.8333,118.167 15.1667,116.833 17.5,115.5C 31.5862,120.041 45.5862,124.874 59.5,130C 64.665,135.663 63.9983,140.497 57.5,144.5 Z"/></g>
<g><path style="opacity:0.997" fill="#f4c33c" d="M 14.5,119.5 C 29.3449,123.059 43.8449,127.726 58,133.5C 60.5946,138.977 58.928,142.311 53,143.5C 45.6004,140.975 38.1004,138.975 30.5,137.5C 24.1756,136.003 18.009,134.003 12,131.5C 10.5432,128.634 10.2099,125.634 11,122.5C 11.4224,120.574 12.5891,119.574 14.5,119.5 Z"/></g>
<g><path style="opacity:1" fill="#e3d63d" d="M 14.5,119.5 C 16.6282,118.371 18.9615,118.204 21.5,119C 33.3524,123.395 45.3524,127.395 57.5,131C 61.4587,135.499 61.4587,139.999 57.5,144.5C 55.9397,144.519 54.4397,144.852 53,145.5C 45.2881,143.098 37.7881,140.432 30.5,137.5C 38.1004,138.975 45.6004,140.975 53,143.5C 58.928,142.311 60.5946,138.977 58,133.5C 43.8449,127.726 29.3449,123.059 14.5,119.5 Z"/></g>
<g><path style="opacity:0.039" fill="#202138" d="M 208.5,138.5 C 207.198,140.822 205.198,142.155 202.5,142.5C 204.147,140.674 206.147,139.34 208.5,138.5 Z"/></g>
<g><path style="opacity:0.996" fill="#f5e6c4" d="M 325.5,173.5 C 336.982,189.193 341.648,206.86 339.5,226.5C 368.374,232.376 383.707,250.043 385.5,279.5C 385.717,297.059 379.384,311.725 366.5,323.5C 360.189,328.154 353.189,331.488 345.5,333.5C 341.491,333.858 337.491,334.358 333.5,335C 255.5,335.667 177.5,335.667 99.5,335C 78.3658,333.364 64.3658,322.53 57.5,302.5C 55.1604,280.353 63.1604,263.186 81.5,251C 84.6179,249.941 87.6179,248.608 90.5,247C 93.5,246.667 96.5,246.333 99.5,246C 98.944,245.617 98.6107,245.117 98.5,244.5C 99.1667,241.833 99.8333,239.167 100.5,236.5C 102.746,230 105.579,223.667 109,217.5C 113.413,211.923 118.247,206.923 123.5,202.5C 129.361,198.096 136.028,195.429 143.5,194.5C 157.141,193.59 170.141,195.923 182.5,201.5C 183.107,201.376 183.44,201.043 183.5,200.5C 191.034,170.301 209.701,150.968 239.5,142.5C 260.835,138.268 281.169,141.101 300.5,151C 302.667,152.5 304.833,154 307,155.5C 307.483,156.448 307.649,157.448 307.5,158.5C 308.873,158.343 310.207,158.51 311.5,159C 316.397,163.729 321.064,168.562 325.5,173.5 Z"/></g>
<g><path style="opacity:0.016" fill="#212332" d="M 199.5,143.5 C 199.833,143.5 200.167,143.5 200.5,143.5C 200.833,143.5 201.167,143.5 201.5,143.5C 200.738,145.262 199.404,146.262 197.5,146.5C 198.167,145.5 198.833,144.5 199.5,143.5 Z"/></g>
<g><path style="opacity:0.075" fill="#1d2135" d="M 197.5,146.5 C 194.899,150.771 191.566,154.437 187.5,157.5C 190.101,153.229 193.434,149.563 197.5,146.5 Z"/></g>
<g><path style="opacity:0.039" fill="#22253d" d="M 187.5,157.5 C 186.92,159.749 185.587,161.415 183.5,162.5C 184.08,160.251 185.413,158.585 187.5,157.5 Z"/></g>
<g><path style="opacity:0.957" fill="#e0d63d" d="M 199.5,143.5 C 198.833,144.5 198.167,145.5 197.5,146.5C 193.434,149.563 190.101,153.229 187.5,157.5C 185.413,158.585 184.08,160.251 183.5,162.5C 179.919,167.328 176.585,172.328 173.5,177.5C 178.772,163.563 187.439,152.229 199.5,143.5 Z"/></g>
<g><path style="opacity:0.455" fill="#2b2d41" d="M 183.5,162.5 C 180.716,167.902 178.05,173.402 175.5,179C 168.241,179.803 161.075,179.303 154,177.5C 145.774,178.565 137.608,179.899 129.5,181.5C 133.809,179.265 138.476,177.765 143.5,177C 152.904,176.208 162.237,176.708 171.5,178.5C 172.416,178.457 173.083,178.124 173.5,177.5C 176.585,172.328 179.919,167.328 183.5,162.5 Z"/></g>
<g><path style="opacity:0.945" fill="#e1d53d" d="M 173.5,177.5 C 173.083,178.124 172.416,178.457 171.5,178.5C 162.237,176.708 152.904,176.208 143.5,177C 138.476,177.765 133.809,179.265 129.5,181.5C 122.003,183.249 115.336,186.582 109.5,191.5C 109.511,189.983 110.177,188.816 111.5,188C 130.675,175.355 151.341,171.855 173.5,177.5 Z"/></g>
<g><path style="opacity:0.997" fill="#f5c13c" d="M 58.5,214.5 C 58.1667,215.5 57.5,216.167 56.5,216.5C 56.2648,215.903 55.7648,215.57 55,215.5C 43.3266,220.335 31.4933,224.668 19.5,228.5C 13.8448,228.118 12.0115,225.118 14,219.5C 26.3148,213.393 38.9815,208.06 52,203.5C 54.4059,203.703 56.4059,204.703 58,206.5C 58.1856,209.399 58.3522,212.066 58.5,214.5 Z"/></g>
<g><path style="opacity:1" fill="#e6d83d" d="M 58.5,203.5 C 59.6148,205.307 60.2814,207.307 60.5,209.5C 60.5643,211.557 59.8976,213.223 58.5,214.5C 58.3522,212.066 58.1856,209.399 58,206.5C 56.4059,204.703 54.4059,203.703 52,203.5C 38.9815,208.06 26.3148,213.393 14,219.5C 12.0115,225.118 13.8448,228.118 19.5,228.5C 31.4933,224.668 43.3266,220.335 55,215.5C 55.7648,215.57 56.2648,215.903 56.5,216.5C 44.1605,221.586 31.6605,226.253 19,230.5C 13.0786,229.358 10.5786,225.691 11.5,219.5C 12.9616,218.542 14.2949,217.376 15.5,216C 26.5,211.667 37.5,207.333 48.5,203C 51.8881,202.341 55.2214,202.508 58.5,203.5 Z"/></g>
<g><path style="opacity:0.639" fill="#2a293f" d="M 58.5,203.5 C 55.2214,202.508 51.8881,202.341 48.5,203C 37.5,207.333 26.5,211.667 15.5,216C 14.2949,217.376 12.9616,218.542 11.5,219.5C 11.8588,217.629 12.8588,216.129 14.5,215C 27.0389,209.657 39.7055,204.823 52.5,200.5C 55.1016,200.467 57.1016,201.467 58.5,203.5 Z"/></g>
<g><path style="opacity:0.027" fill="#24263e" d="M 115.5,96.5 C 85.4052,117.356 71.4052,146.022 73.5,182.5C 73.2053,184.735 73.5386,186.735 74.5,188.5C 75.476,199.098 78.8093,208.765 84.5,217.5C 84.5332,220.097 85.5332,221.097 87.5,220.5C 92.077,209.344 99.077,200.011 108.5,192.5C 109.167,192.5 109.5,192.167 109.5,191.5C 115.336,186.582 122.003,183.249 129.5,181.5C 110.58,189.253 97.0802,202.586 89,221.5C 88.2613,222.574 87.2613,223.241 86,223.5C 78.2021,212.459 73.7021,199.959 72.5,186C 67.7485,151.854 79.7485,123.187 108.5,100C 110.527,98.1207 112.86,96.954 115.5,96.5 Z"/></g>
<g><path style="opacity:0.988" fill="#e2d53f" d="M 108.5,192.5 C 99.077,200.011 92.077,209.344 87.5,220.5C 85.5332,221.097 84.5332,220.097 84.5,217.5C 85.1499,217.804 85.8165,218.137 86.5,218.5C 91.3313,208.363 97.9979,199.53 106.5,192C 107.437,191.308 108.103,191.475 108.5,192.5 Z"/></g>
<g><path style="opacity:1" fill="#e5d63d" d="M 84.5,217.5 C 78.8093,208.765 75.476,199.098 74.5,188.5C 74.3398,186.801 74.5065,185.134 75,183.5C 76.4493,195.343 79.616,206.677 84.5,217.5 Z"/></g>
<g><path style="opacity:0.016" fill="#22253e" d="M 58.5,203.5 C 60.9311,204.607 61.9311,206.607 61.5,209.5C 61.7415,212.514 60.7415,215.014 58.5,217C 45.4089,222.913 32.4089,228.08 19.5,232.5C 17.1807,231.936 14.8474,231.436 12.5,231C 12.8333,230.667 13.1667,230.333 13.5,230C 9.67528,226.905 9.00861,223.405 11.5,219.5C 10.5786,225.691 13.0786,229.358 19,230.5C 31.6605,226.253 44.1605,221.586 56.5,216.5C 57.5,216.167 58.1667,215.5 58.5,214.5C 59.8976,213.223 60.5643,211.557 60.5,209.5C 60.2814,207.307 59.6148,205.307 58.5,203.5 Z"/></g>
<g><path style="opacity:0.992" fill="#dfdfd9" d="M 123.5,202.5 C 118.247,206.923 113.413,211.923 109,217.5C 105.579,223.667 102.746,230 100.5,236.5C 100.751,232.751 101.417,229.085 102.5,225.5C 107.053,215.613 114.053,207.946 123.5,202.5 Z"/></g>
<g><path style="opacity:0.392" fill="#1d1f2b" d="M 366.5,323.5 C 379.384,311.725 385.717,297.059 385.5,279.5C 383.707,250.043 368.374,232.376 339.5,226.5C 341.648,206.86 336.982,189.193 325.5,173.5C 309.824,150.742 287.991,139.409 260,139.5C 252.823,139.095 245.99,140.095 239.5,142.5C 209.701,150.968 191.034,170.301 183.5,200.5C 170.806,193.695 157.472,191.695 143.5,194.5C 136.028,195.429 129.361,198.096 123.5,202.5C 114.053,207.946 107.053,215.613 102.5,225.5C 109.385,208.687 121.718,197.854 139.5,193C 154.076,189.216 168.076,190.716 181.5,197.5C 194.644,159.861 221.144,139.861 261,137.5C 286.299,137.372 306.965,147.039 323,166.5C 336.549,183.312 343.049,202.645 342.5,224.5C 370.589,232.672 385.922,251.338 388.5,280.5C 387.714,298.41 380.38,312.744 366.5,323.5 Z"/></g>
<g><path style="opacity:0.976" fill="#dadad5" d="M 143.5,194.5 C 157.472,191.695 170.806,193.695 183.5,200.5C 183.44,201.043 183.107,201.376 182.5,201.5C 170.141,195.923 157.141,193.59 143.5,194.5 Z"/></g>
<g><path style="opacity:0.996" fill="#e2e0d8" d="M 325.5,173.5 C 321.064,168.562 316.397,163.729 311.5,159C 310.207,158.51 308.873,158.343 307.5,158.5C 307.649,157.448 307.483,156.448 307,155.5C 304.833,154 302.667,152.5 300.5,151C 281.169,141.101 260.835,138.268 239.5,142.5C 245.99,140.095 252.823,139.095 260,139.5C 287.991,139.409 309.824,150.742 325.5,173.5 Z"/></g>
<g><path style="opacity:1" fill="#e4e2d9" d="M 98.5,244.5 C 98.6107,245.117 98.944,245.617 99.5,246C 96.5,246.333 93.5,246.667 90.5,247C 87.6179,248.608 84.6179,249.941 81.5,251C 63.1604,263.186 55.1604,280.353 57.5,302.5C 53.1255,275.437 63.7922,256.604 89.5,246C 92.4781,245.304 95.4781,244.804 98.5,244.5 Z"/></g>
<g><path style="opacity:0.298" fill="#1b2031" d="M 102.5,225.5 C 101.417,229.085 100.751,232.751 100.5,236.5C 99.8333,239.167 99.1667,241.833 98.5,244.5C 95.4781,244.804 92.4781,245.304 89.5,246C 63.7922,256.604 53.1255,275.437 57.5,302.5C 62.6555,321.485 74.9889,332.651 94.5,336C 175.5,336.667 256.5,336.667 337.5,336C 340.379,335.454 343.046,334.621 345.5,333.5C 353.189,331.488 360.189,328.154 366.5,323.5C 360.822,329.681 353.822,333.847 345.5,336C 337.628,338.311 329.628,338.811 321.5,337.5C 318.547,337.651 315.714,338.317 313,339.5C 309.616,339.85 306.282,339.184 303,337.5C 247.132,338.151 191.465,338.151 136,337.5C 133.876,338.227 131.709,338.894 129.5,339.5C 127.452,338.917 125.619,338.917 124,339.5C 123.261,338.426 122.261,337.759 121,337.5C 117.288,337.582 113.622,337.582 110,337.5C 108.667,338.167 107.333,338.833 106,339.5C 82.3037,339.082 65.4703,328.249 55.5,307C 49.7218,273.889 63.5551,252.055 97,241.5C 98.1065,237.196 99.1065,232.863 100,228.5C 100.852,227.429 101.685,226.429 102.5,225.5 Z"/></g>
<g><path style="opacity:0.655" fill="#e7e7e7" d="M 57.5,302.5 C 64.3658,322.53 78.3658,333.364 99.5,335C 177.5,335.667 255.5,335.667 333.5,335C 337.491,334.358 341.491,333.858 345.5,333.5C 343.046,334.621 340.379,335.454 337.5,336C 256.5,336.667 175.5,336.667 94.5,336C 74.9889,332.651 62.6555,321.485 57.5,302.5 Z"/></g>
</svg>
